<svg width="24" height="24" viewBox="0 0 24 24" fill="none" xmlns="http://www.w3.org/2000/svg">
<path fill-rule="evenodd" clip-rule="evenodd" d="M16.5 3C14.8 3 13.1 3.8 12 5.2C10.9 3.8 9.2 3 7.5 3C4.4 3 2 5.5 2 8.7C2 12.6 5.4 15.8 10.5 20.7L12 22L13.5 20.6C18.6 15.8 22 12.6 22 8.6C22 5.5 19.6 3 16.5 3ZM12.4 19.6L12 20L11.6 19.6C6.7 15 3.5 12 3.5 8.7C3.5 6.3 5.3 4.5 7.5 4.5C8.8 4.5 10 5.1 10.9 6.1L12 7.5L13.1 6.1C13.9 5.1 15.2 4.5 16.5 4.5C18.8 4.5 20.5 6.4 20.5 8.7C20.5 12 17.3 15 12.4 19.6Z" fill="black"/>
</svg>
